<?xml version="1.0" encoding="UTF-8"?>
<svg id="_레이어_1" data-name="레이어_1" xmlns="http://www.w3.org/2000/svg" version="1.1" viewBox="0 0 1800 1344">
  <!-- Generator: Adobe Illustrator 30.1.0, SVG Export Plug-In . SVG Version: 2.1.1 Build 136)  -->
  <defs>
    <style>
      .st0 {
        fill: #efeff1;
      }

      .st1 {
        fill: #2565b2;
      }

      .st2 {
        fill: #b9bbbc;
      }
    </style>
  </defs>
  <path class="st0" d="M0,1344V0h1800v1344H0ZM1487.88,832.5c.81-.36.79-.92.35-1.5l.93-6c.89.39,1.11-.04,1.62-.87.55-.87-.96-1.44-.97-2.13-.03-1.44.55-3.05.13-4.5l1.79-1.49c.4-.33-.13-1.04-.49-1.51.04-2.37.67-5.15,1.14-7.5.54-.4,1-.97.23-1.5.3-3.02.66-6.03,1.28-9,.09-.42,1.04-.73,1.3-1.23.38-.74.21-1.96-.96-1.77l.02-3c.93.22.95-.85.83-1.5-.37-2.02.2-4,.32-6,2.58-1.15,2.36-5.8.48-7.5l.99-6c2.17-1.75,2.7-5.79.37-7.5l.98-24,.1-3.12c.42-13.44-.01-26.98-1-40.38.28-.33.53-.75.75-1.2.36-.73-.87-1.29-.84-1.8l-.13-4.5c-.02-.79,1.62-1.46,1.45-2.38-.23-1.28-.38-2.57-1.86-2.12l-.87-9c3.6-1.99-.17-5.41-.43-7.5l-4.16-33c1.03-.66.97-1.71-.35-1.5-.44-1.9-.93-4.08-1.09-6,.24-.67,1.44-1.34,1.02-2.09-.63-1.16-1.34-2.33-2.33-1.34.13-1.3-.11-2.84-.19-4.07.04-.63,1.31-1.25.94-2.1-.54-1.22-1.28-2.06-2.39-2.4.1-5.63-2.74-10.85-2.34-16.5.14-1.91.06-3.96-2.2-4.5-27.45-125.03-107.12-245.3-207.99-324.75,7.8-18.95,10.44-39.03,21.05-55.29l31.95-48.94,79.14-115.6c.95-1.38.72-3.87.28-4.8-.53-1.11-3.46-1.24-4.87.05l-25.07,22.87-109.19,99.98-35.2,71.58c-108.03-72.29-234.97-108.98-365.46-105.44-122.66,3.33-233.32,37.88-336.73,105.31l-35.64-70.87c-3.26-6.47-9.94-9.7-15.07-14.83l-117.3-107.17c-2.12-1.94-7.41-2.44-7.46.1,6.39,12.13,14.51,21.96,22.22,33.32,30.45,44.87,62.05,87.91,89.86,134.59,10.17,17.06,12.93,36.27,21.74,55.24-50.33,39.63-92.54,86.49-127.88,139.47-131.1,196.52-127.85,452.37,8.99,645.08,94.5,133.09,239.14,223.94,399.71,252.79,153.5,27.57,310.89-1.74,443.47-83.75,140.52-86.92,243.69-226.28,275.04-388.96Z"/>
  <path class="st1" d="M1482.32,592.5c.38,1.71-.14,3.99,2.2,4.5-.4,5.65,2.44,10.87,2.34,16.5-.03,1.65.19,3.29,1.45,4.5.07,1.23.32,2.76.19,4.07-.12,1.22.74,2.43,1.31,3.43.16,1.92.65,4.1,1.09,6l.35,1.5,4.16,33c.04,2.5.19,5.01.43,7.5l.87,9c-.95,1.41-.04,3.04.41,4.5l.13,4.5.09,3c.98,13.4,1.42,26.94,1,40.38-1.15-.63-1.36,1.25-1.32,2.26.02.47.44,1.08,1.23.86l-.98,24-.37,7.5-.99,6c-.41,2.49-.33,5-.48,7.5-.13,2-.7,3.98-.32,6-1.02-.09-.82.85-.83,1.5l-.02,3-.33,3c-.62,2.97-.98,5.98-1.28,9l-.23,1.5c-.47,2.35-1.1,5.13-1.14,7.5-.65.89-1.13,1.9-1.3,3,.42,1.45-.16,3.06-.13,4.5-1.6.88-.5,2.01-.65,3l-.93,6-.35,1.5c-31.35,162.68-134.51,302.04-275.04,388.96-132.59,82.01-289.97,111.32-443.47,83.75-160.56-28.84-305.21-119.7-399.71-252.79-136.83-192.71-140.09-448.57-8.99-645.08,35.35-52.99,77.55-99.84,127.88-139.47-8.81-18.96-11.57-38.18-21.74-55.24-27.81-46.67-59.41-89.72-89.86-134.59-7.71-11.36-15.83-21.2-22.22-33.32.06-2.54,5.35-2.04,7.46-.1l117.3,107.17c5.13,5.13,11.81,8.35,15.07,14.83l35.64,70.87c103.41-67.43,214.06-101.98,336.73-105.31,130.49-3.54,257.43,33.16,365.46,105.44l35.2-71.58,109.19-99.98,25.07-22.87c1.41-1.29,4.34-1.17,4.87-.05.45.93.67,3.41-.28,4.8l-79.14,115.6-31.95,48.94c-10.61,16.26-13.25,36.33-21.05,55.29,100.87,79.45,180.54,199.72,207.99,324.75ZM1272.8,169.44c2.98,7.1,4.22,11.97,8.68,17.25l86.09-102.25c-5.54,1.14-6.77,4.78-9.7,7.45l-44.59,40.72-40.48,36.82ZM489.25,168.86l-68.25-61.71c-8.44-7.63-15.58-15.27-24.92-21.55l26.84,31.63,58.87,69.51c3.32-6.72,5.71-11.15,7.46-17.87ZM403.44,103.33c-2.35-2.87-3.8-5.63-6.97-8.8.83,3.59,3.1,6.94,6.97,8.8ZM1359.14,102.88c3.25-1.45,6.31-3.23,5.43-6.97-1.47,2.86-3.38,4.72-5.43,6.97ZM478.83,191.15l-75.3-86.75,67,101.11c3.95-4.5,6.12-8.14,8.3-14.36ZM1291.66,205.65l67.32-101.46-75.14,87.39c2.15,5.7,3.27,11.02,7.82,14.07ZM570.81,400.54l20.26-25.23-58.24-117.26-40.11-81.65c-4.23,6.02-6.16,10.92-7.65,16.99l61.48,147.83,24.27,59.32ZM1190.21,401.24l43.3-102.3,43.82-105.29c-2.07-6.21-4.18-10.9-7.54-17.13l-33.77,68.03-65.29,131.66c6.54,8.75,11.38,17.14,19.48,25.01ZM552.44,418.72c6.84-5.74,9.71-9.26,14.35-14.2l-58.94-142.34-26.51-63.25c-2.21,3.72-5.82,8.19-6.16,12.32,3.25,11.06,6.81,20.78,10.93,31.7l66.33,175.76ZM1210.64,420.67l76.81-207.6c-1.75-4.98-3.08-8.83-6.83-13.1l-30.81,73.66-55.94,132.31c5.96,5.24,10.1,10.69,16.78,14.71ZM731.83,567.96l27.58-19.89c-5.52-4.82-8.42-9.03-13.1-13.73l-152.81-153.53-19.71,25.41,64.67,66.88,93.37,94.86ZM1029.54,567.5l157.28-161.34-19.61-24.67-68.58,69.18-96.18,97.15c8.59,7.68,17.6,12.9,27.09,19.68ZM726.89,570.93l-63.11-64.66-93.83-95.91c-6.42,3.94-10.13,9.11-14.99,13.72l123.66,133.17,27.47,28.61c7.3-5.46,14.09-8.77,20.8-14.92ZM1057.33,586.14l150.25-159.73-17.06-16.15-63.46,64.5-92.98,95.93c8.29,6.16,14.49,11.87,23.24,15.45ZM798.7,691.85l29.59-34.26-66.05-104.95-28.17,20.48,64.63,118.73ZM962.78,690.38l63.43-118.69-27.15-18.75-67.67,104.64,31.4,32.8ZM757.62,697.73l35.42-4.92-63.04-116.9-22.04,14.42,49.67,107.39ZM1006.13,697.14l47.29-105.87c-7.78-5.91-14.54-11.13-23.06-16.06l-63.08,117.59,38.85,4.34ZM1065.22,711.88l160.46-90.16c4.78-3.18,10.34-3.51,13.17-8.38l-141.29,38.32c-5.43,1.47-9.06,3.93-10.63,9.39l-21.7,50.83ZM673.17,656.97c-1.9-2.02-3.34-4.28-5.88-4.94l-141.63-37.17,172.09,98.3-24.58-56.18ZM713.26,747.28c-3.83-10.89-7.89-17.89-12.14-26.73l-184.46-103.29,116.54,145.57,80.06-15.54ZM1130.11,763.52l115.62-146.51-184.75,102.98-12.9,28.51,82.03,15.02ZM741,748.93l9.05-39.29-70.89-51.02,55.57,124.57c4.41-11.57,3.37-22.6,6.26-34.27ZM1020.88,748.22c2.57,11.56,2.04,21.97,6.2,34.13l54.45-123.11-69.77,49.88,9.12,39.1ZM917.5,768.2l42.76-71.58-32.46-34.99-95.01-.42-31.89,35.95,42.24,71.58,38.19-31.45,36.18,30.91ZM838.79,883.84c4.7-4.91,9.1-9.97,10.53-15.38l-8.94-94.4-45-75.69-37.68,4.93-11.38,44.05,61.73,53.94,30.74,82.55ZM953.8,800.66l62-53.32-11.26-44.7-39.05-4.31-44.91,75.79-9.06,94.21c3.84,5.55,5.86,11.02,11.39,16.38l30.89-84.05ZM908.26,913.87c11.44.38,18.41,8.82,17.59,19.2-2.18,27.59-19.28,36.4-36.77,51.94l51.08,7.75c4.62-3.13,11.22-8.12,14-13.59-.52-13.17,1.18-30.24-5.84-41.69l-41.53-67.74,8.44-96.53-34.05-29.31-35.55,30.45,8.7,96.19-41.43,66.78c-2.39,3.86-14.78,49.93,9.31,55.67l50.28-8.47c-19.5-13.98-38.67-29.18-36.64-54.53.71-8.95,9.1-15.42,17.96-15.75,18.01-.66,35.49-.99,54.45-.37ZM730.24,786.4c-4.72-13.18-9.16-22.76-14.71-34.05l-69.65,14.41,84.36,19.63ZM810.04,929.34l25.51-38.35-31.69-86.45-58.3-50.87c-3.05,13-3.44,24.42-5.51,36.22-.92,5.26,1.71,8.36,4.04,12.85l65.95,126.61ZM983.51,866.93l38.97-73.01-6.31-39.85c-20.98,17.48-39.96,32.89-58.42,50.79l-31.47,86.31,24.37,38.17,32.87-62.41ZM1115.96,767.22l-64.35-13.5c-3.41.59-6.35.62-8,3.64l-11.77,29.09,84.12-19.23ZM960.15,973.3l29.5-30.84,27.4-127.08-63.04,118.94,6.14,38.98ZM802.21,974.11c.63-13.78,1.91-25.3,4.69-38.28l-61.37-118.69,26.5,124.91,30.18,32.07ZM1039.29,1053.96l-32.03-162-12.76,51.99,44.79,110.01ZM736.13,1021.74l30.92-78.66-11.95-49.78-33.65,165.89c6.75-12.61,9.6-24.52,14.68-37.45ZM880.49,982.77c20.22-12.24,39.8-27.77,40.47-51.19.2-7.1-6.03-12.84-13.44-12.76l-53.88.61c-5.72.07-12.83,5.36-12.92,11.09-.4,26.8,19.46,38.62,39.77,52.25ZM792.63,1027.69l17.98-36.14-40.33-42.87-54.2,143.08,17.59,58.21,58.97-122.28ZM1028.24,1150.8l19.74-57.56-57.05-144.27-39.96,41.92,77.27,159.91ZM908.11,1021.67c6.56.02,19.63-18.61,27.09-24.21l-54.78-8.87-54.48,9.54,22.09,23.33,60.08.21ZM947.33,995.42c-14.55,7.39-27.68,31.46-38.4,31.5l-53.69.22c-7.98.03-13.06-3.34-18.04-8.87-7.18-7.98-14.17-15.56-22.38-22.74l-18.16,36.03,84.27,232.79,33.68-93.25c.68-1.88-1.49-4.78,2.2-5.7l47.98-134.38-17.46-35.6ZM857.4,1251.42c5.45,4.93,10.56,8.49,16.97,11.35l-80.79-224.93-57.24,119.53,121.06,94.05ZM1025.61,1157.9l-57.79-119.76-80.95,227.22,138.74-107.47ZM721.75,1062.11c-.34-1.88-1.66-1.88-2,0,.21,3.46,1.79,3.46,2,0Z"/>
  <path class="st2" d="M1496.88,769.5l.37-7.5c2.34,1.71,1.8,5.75-.37,7.5Z"/>
  <path class="st2" d="M1495.4,783c.16-2.5.07-5.01.48-7.5,1.87,1.7,2.09,6.35-.48,7.5Z"/>
  <path class="st2" d="M1495.83,673.5c-.24-2.49-.39-5-.43-7.5.26,2.09,4.03,5.51.43,7.5Z"/>
  <path class="st2" d="M1497.11,687c-.45-1.46-1.36-3.09-.41-4.5,1.48-.44,1.63.85,1.86,2.12.16.92-1.48,1.59-1.45,2.38Z"/>
  <path class="st2" d="M1488.31,618c-1.26-1.21-1.48-2.85-1.45-4.5,1.11.35,1.85,1.18,2.39,2.4.37.85-.9,1.47-.94,2.1Z"/>
  <path class="st2" d="M1484.52,597c-2.34-.51-1.83-2.79-2.2-4.5,2.27.54,2.34,2.59,2.2,4.5Z"/>
  <path class="st2" d="M1489.8,625.5c-.56-1-1.43-2.21-1.31-3.43.99-.99,1.7.18,2.33,1.34.41.76-.78,1.42-1.02,2.09Z"/>
  <path class="st2" d="M1489.16,825c.15-.99-.94-2.12.65-3,.01.69,1.52,1.26.97,2.13-.52.83-.74,1.26-1.62.87Z"/>
  <path class="st2" d="M1493.89,796.5l.33-3c1.18-.2,1.34,1.03.96,1.77-.26.5-1.21.81-1.3,1.23Z"/>
  <path class="st2" d="M1497.33,694.5l-.09-3c-.03.51,1.2,1.07.84,1.8-.22.44-.47.87-.75,1.2Z"/>
  <path class="st2" d="M1498.23,738c-.79.22-1.21-.39-1.23-.86-.04-1.01.17-2.89,1.32-2.26l-.1,3.12Z"/>
  <path class="st2" d="M1491.24,633l-.35-1.5c1.31-.21,1.38.84.35,1.5Z"/>
  <path class="st2" d="M1492.39,807l.23-1.5c.77.53.31,1.1-.23,1.5Z"/>
  <path class="st2" d="M1489.94,817.5c.17-1.1.65-2.11,1.3-3,.36.48.88,1.18.49,1.51l-1.79,1.49Z"/>
  <path class="st2" d="M1487.88,832.5l.35-1.5c.44.58.46,1.14-.35,1.5Z"/>
  <path class="st2" d="M1494.25,790.5c0-.65-.19-1.59.83-1.5.12.65.1,1.72-.83,1.5Z"/>
  <path class="st2" d="M947.33,995.42l17.46,35.6-47.98,134.38c-3.69.92-1.52,3.83-2.2,5.7l-33.68,93.25-84.27-232.79,18.16-36.03c8.21,7.17,15.2,14.75,22.38,22.74,4.97,5.53,10.06,8.9,18.04,8.87l53.69-.22c10.72-.04,23.85-24.11,38.4-31.5Z"/>
  <path class="st2" d="M908.26,913.87c-18.96-.62-36.44-.29-54.45.37-8.86.32-17.25,6.8-17.96,15.75-2.03,25.35,17.14,40.56,36.64,54.53l-50.28,8.47c-24.09-5.73-11.7-51.81-9.31-55.67l41.43-66.78-8.7-96.19,35.55-30.45,34.05,29.31-8.44,96.53,41.53,67.74c7.02,11.45,5.32,28.52,5.84,41.69-2.79,5.47-9.38,10.46-14,13.59l-51.08-7.75c17.49-15.54,34.59-24.36,36.77-51.94.82-10.38-6.14-18.83-17.59-19.2Z"/>
  <polygon class="st2" points="917.5 768.2 881.33 737.29 843.14 768.74 800.9 697.16 832.79 661.21 927.8 661.63 960.26 696.62 917.5 768.2"/>
  <polygon class="st2" points="1025.61 1157.9 886.87 1265.36 967.82 1038.14 1025.61 1157.9"/>
  <polygon class="st2" points="1130.11 763.52 1048.08 748.5 1060.98 719.99 1245.73 617.01 1130.11 763.52"/>
  <path class="st2" d="M713.26,747.28l-80.06,15.54-116.54-145.57,184.46,103.29c4.25,8.84,8.31,15.84,12.14,26.73Z"/>
  <path class="st2" d="M953.8,800.66l-30.89,84.05c-5.53-5.35-7.55-10.82-11.39-16.38l9.06-94.21,44.91-75.79,39.05,4.31,11.26,44.7-62,53.32Z"/>
  <polygon class="st2" points="1028.24 1150.8 950.97 990.89 990.93 948.98 1047.98 1093.24 1028.24 1150.8"/>
  <path class="st2" d="M838.79,883.84l-30.74-82.55-61.73-53.94,11.38-44.05,37.68-4.93,45,75.69,8.94,94.4c-1.43,5.41-5.83,10.46-10.53,15.38Z"/>
  <polygon class="st2" points="792.63 1027.69 733.66 1149.97 716.07 1091.77 770.28 948.68 810.61 991.55 792.63 1027.69"/>
  <path class="st2" d="M731.83,567.96l-93.37-94.86-64.67-66.88,19.71-25.41,152.81,153.53c4.68,4.7,7.58,8.91,13.1,13.73l-27.58,19.89Z"/>
  <path class="st2" d="M1029.54,567.5c-9.49-6.79-18.5-12-27.09-19.68l96.18-97.15,68.58-69.18,19.61,24.67-157.28,161.34Z"/>
  <path class="st2" d="M810.04,929.34l-65.95-126.61c-2.33-4.48-4.96-7.58-4.04-12.85,2.07-11.8,2.46-23.22,5.51-36.22l58.3,50.87,31.69,86.45-25.51,38.35Z"/>
  <path class="st2" d="M983.51,866.93l-32.87,62.41-24.37-38.17,31.47-86.31c18.46-17.9,37.44-33.31,58.42-50.79l6.31,39.85-38.97,73.01Z"/>
  <path class="st2" d="M1057.33,586.14c-8.75-3.59-14.95-9.29-23.24-15.45l92.98-95.93,63.46-64.5,17.06,16.15-150.25,159.73Z"/>
  <path class="st2" d="M726.89,570.93c-6.71,6.15-13.5,9.47-20.8,14.92l-27.47-28.61-123.66-133.17c4.86-4.61,8.57-9.78,14.99-13.72l93.83,95.91,63.11,64.66Z"/>
  <polygon class="st2" points="798.7 691.85 734.07 573.11 762.25 552.63 828.29 657.58 798.7 691.85"/>
  <polygon class="st2" points="962.78 690.38 931.39 657.58 999.06 552.94 1026.22 571.69 962.78 690.38"/>
  <path class="st2" d="M1190.21,401.24c-8.1-7.87-12.94-16.26-19.48-25.01l65.29-131.66,33.77-68.03c3.36,6.22,5.47,10.92,7.54,17.13l-43.82,105.29-43.3,102.3Z"/>
  <path class="st2" d="M570.81,400.54l-24.27-59.32-61.48-147.83c1.49-6.07,3.42-10.97,7.65-16.99l40.11,81.65,58.24,117.26-20.26,25.23Z"/>
  <path class="st2" d="M1006.13,697.14l-38.85-4.34,63.08-117.59c8.52,4.94,15.28,10.15,23.06,16.06l-47.29,105.87Z"/>
  <path class="st2" d="M1065.22,711.88l21.7-50.83c1.57-5.46,5.2-7.91,10.63-9.39l141.29-38.32c-2.83,4.87-8.38,5.21-13.17,8.38l-160.46,90.16Z"/>
  <polygon class="st2" points="757.62 697.73 707.95 590.34 729.99 575.92 793.03 692.82 757.62 697.73"/>
  <path class="st2" d="M880.49,982.77c-20.32-13.62-40.18-25.44-39.77-52.25.09-5.73,7.2-11.02,12.92-11.09l53.88-.61c7.41-.08,13.65,5.66,13.44,12.76-.68,23.42-20.26,38.95-40.47,51.19Z"/>
  <path class="st2" d="M1210.64,420.67c-6.68-4.03-10.82-9.47-16.78-14.71l55.94-132.31,30.81-73.66c3.75,4.26,5.08,8.12,6.83,13.1l-76.81,207.6Z"/>
  <path class="st2" d="M552.44,418.72l-66.33-175.76c-4.12-10.91-7.68-20.64-10.93-31.7.34-4.13,3.95-8.6,6.16-12.32l26.51,63.25,58.94,142.34c-4.64,4.94-7.51,8.46-14.35,14.2Z"/>
  <polygon class="st2" points="960.15 973.3 954.02 934.32 1017.06 815.38 989.66 942.46 960.15 973.3"/>
  <path class="st2" d="M802.21,974.11l-30.18-32.07-26.5-124.91,61.37,118.69c-2.78,12.98-4.06,24.5-4.69,38.28Z"/>
  <path class="st2" d="M1020.88,748.22l-9.12-39.1,69.77-49.88-54.45,123.11c-4.16-12.15-3.63-22.57-6.2-34.13Z"/>
  <path class="st2" d="M741,748.93c-2.89,11.67-1.85,22.69-6.26,34.27l-55.57-124.57,70.89,51.02-9.05,39.29Z"/>
  <path class="st2" d="M908.11,1021.67l-60.08-.21-22.09-23.33,54.48-9.54,54.78,8.87c-7.45,5.6-20.53,24.24-27.09,24.21Z"/>
  <polygon class="st2" points="1039.29 1053.96 994.5 943.94 1007.26 891.96 1039.29 1053.96"/>
  <path class="st2" d="M736.13,1021.74c-5.08,12.92-7.93,24.84-14.68,37.45l33.65-165.89,11.95,49.78-30.92,78.66Z"/>
  <path class="st2" d="M730.24,786.4l-84.36-19.63,69.65-14.41c5.55,11.28,9.99,20.87,14.71,34.05Z"/>
  <path class="st2" d="M1115.96,767.22l-84.12,19.23,11.77-29.09c1.65-3.02,4.59-3.04,8-3.64l64.35,13.5Z"/>
  <path class="st2" d="M1272.8,169.44l40.48-36.82,44.59-40.72c2.93-2.67,4.16-6.31,9.7-7.45l-86.09,102.25c-4.46-5.28-5.7-10.16-8.68-17.25Z"/>
  <path class="st2" d="M489.25,168.86c-1.75,6.72-4.14,11.16-7.46,17.87l-58.87-69.51-26.84-31.63c9.33,6.28,16.48,13.93,24.92,21.55l68.25,61.71Z"/>
  <path class="st2" d="M1291.66,205.65c-4.55-3.04-5.67-8.37-7.82-14.07l75.14-87.39-67.32,101.46Z"/>
  <path class="st2" d="M478.83,191.15c-2.18,6.22-4.35,9.86-8.3,14.36l-67-101.11,75.3,86.75Z"/>
  <path class="st2" d="M721.75,1062.11c-.21,3.46-1.79,3.46-2,0,.34-1.88,1.66-1.88,2,0Z"/>
  <path class="st2" d="M1359.14,102.88c2.05-2.25,3.96-4.11,5.43-6.97.88,3.74-2.18,5.52-5.43,6.97Z"/>
  <path class="st2" d="M403.44,103.33c-3.87-1.86-6.14-5.21-6.97-8.8,3.17,3.17,4.62,5.92,6.97,8.8Z"/>
  <path class="st2" d="M673.17,656.97l24.58,56.18-172.09-98.3,141.63,37.17c2.53.66,3.98,2.92,5.88,4.94Z"/>
  <path class="st2" d="M857.4,1251.42l-121.06-94.05,57.24-119.53,80.79,224.93c-6.41-2.86-11.52-6.42-16.97-11.35Z"/>
</svg>